<?xml version="1.0" encoding="utf-8"?>
<svg version="1.1" xmlns="http://www.w3.org/2000/svg"
  xmlns:xlink="http://www.w3.org/1999/xlink"
  viewBox="0 0 512 512" xml:space="preserve">

  <style type="text/css">
    .st0{fill:url(#SVGID_1_);}
    .st1{opacity:0.6;fill:#19FF43;}
    .st2{opacity:0.5;fill:#19FF43;}
    /* Changed from pure white to your app text color for consistency */
    .st3{fill:#EAF1FF;}
  </style>

  <radialGradient id="SVGID_1_" cx="106.0634" cy="405.9866" r="1"
    gradientTransform="matrix(448 0 0 -448 -47350 182026)"
    gradientUnits="userSpaceOnUse">
    <stop offset="0" style="stop-color:#19FF43;stop-opacity:0.18"/>
    <stop offset="1" style="stop-color:#131A22"/>
  </radialGradient>

  <!-- Background rounded square -->
  <path class="st0" d="M142,32h228c60.8,0,110,49.2,110,110v228c0,60.8-49.2,110-110,110H142c-60.8,0-110-49.2-110-110V142
    C32,81.2,81.2,32,142,32z"/>

  <!-- Accent dots -->
  <circle class="st1" cx="82.5" cy="215" r="13.3"/>
  <circle class="st2" cx="187.8" cy="179.9" r="4"/>
  <circle class="st1" cx="118.3" cy="185.1" r="9.3"/>
  <circle class="st1" cx="156" cy="175.9" r="5.6"/>

  <!-- Keyhole (as the 'i' dot / vault symbol) -->
  <path class="st3" d="M194.8,400.9c-26,0-51.7,0-77.6,0c1.3-9.5,2.6-18.7,3.9-27.9c3.2-22.8,6.4-45.7,9.7-68.5
    c0.4-2.6-0.9-3.6-2.5-5c-15.8-13.2-22.3-30.5-17.9-51.2c4.5-20.6,17.2-33.5,36.9-37.7c21.6-4.7,43.1,7.7,52,29.4
    c8.6,21.1,2,46.1-15.8,59.8c-1.8,1.4-2.5,2.5-2.1,5c4.5,31.4,8.9,62.7,13.3,94.1C194.7,399.4,194.7,400,194.8,400.9z"/>

  <!-- V -->
  <path class="st3" d="M210,111.1c0.8,0,1.4,0,2,0c24.3,0,48.7,0,73,0c1.5,0,2.1,0.5,2.5,1.9c12.1,46.3,24.2,92.7,36.3,139
    c0.1,0.6,0.3,1.1,0.7,2.2c1.1-4,2-7.4,2.9-10.9c9.2-35.1,18.3-70.2,27.5-105.4c2.2-8.4,4.4-16.7,6.5-25.1
    c0.3-1.3,0.8-1.7,2.2-1.7c24.5,0,49,0,73.5,0c0.5,0,1,0,1.7,0.1c-1.1,4.2-2.1,8.3-3.2,12.3c-17.5,67.7-35.1,135.3-52.6,203
    c-6.2,24-12.5,48.1-18.7,72.1c-0.4,1.7-1.4,2.2-2.9,2.3c-0.3,0-0.6,0-0.9,0c-24.1,0-48.2,0-72.2,0c-3.1,0-3.1,0-3.9-3.1
    c-17.4-67.2-34.9-134.4-52.3-201.5c-7.2-27.8-14.4-55.6-21.6-83.3C210.3,112.4,210.2,111.9,210,111.1z"/>
</svg>
